# xmcd database file
#
# Track frame offsets:
# 150
# 16609
# 30560
# 53183
# 67370
# 99836
# 114619
# 128281
# 148424
# 171224
# 183343
# 204261
#
# Disc length: 2984 seconds
#
# Revision: 2
# Processed by: cddbd v1.5.1PL0 Copyright (c) Steve Scherf et al.
# Submitted via: CD-Runner 2004.04
#
DISCID=9f0ba60c
DTITLE=Tom Corbett - Cloudless Blue Sky
DYEAR=2004
DGENRE=Country
TTITLE0=When I Get My Wheels
TTITLE1=Rear View Mirror
TTITLE2=Island Calypso
TTITLE3=Raging Bull
TTITLE4=Something 'Bout the Blues
TTITLE5=Fishin'
TTITLE6=The Whole World 'Round
TTITLE7=Cloudless Blue Sky
TTITLE8=Mary's Kissin' the Quaker
TTITLE9=Let My Pony Run
TTITLE10=On A New York Evening
TTITLE11=Hello Dad
EXTD=
EXTT0=
EXTT1=
EXTT2=
EXTT3=
EXTT4=
EXTT5=
EXTT6=
EXTT7=
EXTT8=
EXTT9=
EXTT10=
EXTT11=
PLAYORDER=
